<svg width="30" height="30" viewBox="0 0 30 30" fill="none" xmlns="http://www.w3.org/2000/svg">
<g clip-path="url(#clip0_224_563)">
<path d="M20.2045 21.625H8.84082V20.2045C8.84082 19.2627 9.21496 18.3595 9.88092 17.6935C10.5469 17.0275 11.4501 16.6534 12.392 16.6534H16.6533C17.5951 16.6534 18.4984 17.0275 19.1644 17.6935C19.8303 18.3595 20.2045 19.2627 20.2045 20.2045V21.625ZM14.5226 15.2329C13.963 15.2329 13.4089 15.1227 12.8919 14.9086C12.3749 14.6944 11.9051 14.3805 11.5094 13.9848C11.1137 13.5891 10.7998 13.1193 10.5857 12.6023C10.3715 12.0853 10.2613 11.5312 10.2613 10.9716C10.2613 10.412 10.3715 9.85783 10.5857 9.34082C10.7998 8.8238 11.1137 8.35403 11.5094 7.95833C11.9051 7.56263 12.3749 7.24874 12.8919 7.03458C13.4089 6.82043 13.963 6.71021 14.5226 6.71021C15.6528 6.71021 16.7367 7.15917 17.5359 7.95833C18.335 8.75749 18.784 9.84138 18.784 10.9716C18.784 12.1018 18.335 13.1856 17.5359 13.9848C16.7367 14.784 15.6528 15.2329 14.5226 15.2329V15.2329Z" fill="#008092"/>
</g>
<circle cx="15" cy="15" r="14" stroke="#008092" stroke-width="2"/>
<defs>
<clipPath id="clip0_224_563">
<rect width="17.0455" height="17.0455" fill="white" transform="translate(6 6)"/>
</clipPath>
</defs>
</svg>
